<?xml version="1.0" encoding="UTF-8"?><svg id="Layer_1" xmlns="http://www.w3.org/2000/svg" viewBox="0 0 96.77 26.44"><defs><style>.cls-1{fill:#cf141f;}.cls-2{fill:#13110c;}</style></defs><path class="cls-2" d="M27.69,6.99c.49,0,.74-.12,.91-.3,.16-.17,.25-.39,.25-.63s-.09-.47-.25-.64c-.17-.18-.42-.3-.91-.3h-1.3v1.87h1.3Zm-1.3,1.28v3.05h-1.44V3.84h2.81c.96,0,1.53,.23,1.95,.67,.37,.38,.59,.96,.59,1.55s-.21,1.16-.59,1.55c-.41,.43-.98,.66-1.95,.66h-1.37Z"/><polygon class="cls-2" points="32.8 5.12 32.8 6.67 35.09 6.67 35.09 7.95 32.8 7.95 32.8 10.03 35.95 10.03 35.95 11.31 31.35 11.31 31.35 3.84 35.84 3.84 35.84 5.12 32.8 5.12"/><polygon class="cls-2" points="42.2 3.84 42.2 5.12 40.22 5.12 40.22 11.32 38.78 11.32 38.78 5.12 36.8 5.12 36.8 3.84 42.2 3.84"/><polygon class="cls-2" points="50.59 3.84 50.59 5.12 48.61 5.12 48.61 11.32 47.17 11.32 47.17 5.12 45.19 5.12 45.19 3.84 50.59 3.84"/><path class="cls-2" d="M54.35,6.72c.42,0,.6-.09,.73-.22,.13-.14,.21-.35,.21-.57s-.09-.44-.21-.58c-.13-.14-.31-.23-.73-.23h-1.2v1.6h1.2Zm-1.2,1.28v3.31h-1.44V3.84h2.72c.77,0,1.26,.21,1.64,.56,.41,.39,.66,.93,.66,1.53s-.26,1.14-.66,1.53c-.2,.19-.45,.34-.75,.44l2.8,3.43h-1.78l-2.66-3.31h-.52Z"/><path class="cls-2" d="M61.26,8.38h1.9l-.95-2.21-.95,2.21Zm-2.76,2.94l3.21-7.48h1.01l3.21,7.48h-1.51l-.7-1.66h-3l-.71,1.66h-1.51Z"/><path class="cls-2" d="M71.2,5.95c-.42-.52-1.03-.83-1.91-.83h-1.07v4.92h1.07c.89,0,1.5-.31,1.91-.83,.34-.43,.54-1,.54-1.62s-.2-1.2-.54-1.62m-2.07-2.12c1.19,0,1.97,.26,2.57,.71,.92,.68,1.49,1.8,1.49,3.03s-.57,2.35-1.49,3.03c-.61,.45-1.39,.71-2.57,.71h-2.35V3.84h2.35Z"/><polygon class="cls-2" points="75.81 5.12 75.81 6.67 78.11 6.67 78.11 7.95 75.81 7.95 75.81 10.03 78.96 10.03 78.96 11.31 74.37 11.31 74.37 3.84 78.86 3.84 78.86 5.12 75.81 5.12"/><rect class="cls-1" x="24.94" y="15.37" width="1.44" height="7.48"/><polygon class="cls-1" points="28.09 15.37 29.11 15.37 33.28 20.25 33.28 15.37 34.72 15.37 34.72 22.85 33.7 22.85 29.54 17.98 29.54 22.85 28.09 22.85 28.09 15.37"/><polygon class="cls-1" points="36.43 15.37 37.45 15.37 41.61 20.25 41.61 15.37 43.06 15.37 43.06 22.85 42.04 22.85 37.87 17.98 37.87 22.85 36.43 22.85 36.43 15.37"/><path class="cls-1" d="M48.13,21.68c1.41,0,2.46-1.15,2.46-2.56s-1.05-2.56-2.46-2.56-2.46,1.15-2.46,2.56,1.05,2.56,2.46,2.56m0-6.41c2.31,0,3.9,1.72,3.9,3.85s-1.59,3.85-3.9,3.85-3.9-1.72-3.9-3.85,1.59-3.85,3.9-3.85"/><polygon class="cls-1" points="52.19 15.37 53.68 15.37 55.72 20.48 57.77 15.37 59.26 15.37 56.23 22.85 55.22 22.85 52.19 15.37"/><path class="cls-1" d="M61.48,19.91h1.9l-.95-2.21-.95,2.21Zm-2.76,2.94l3.21-7.48h1.01l3.21,7.48h-1.51l-.7-1.66h-3l-.71,1.66h-1.51Z"/><polygon class="cls-1" points="71.23 15.37 71.23 16.65 69.25 16.65 69.25 22.85 67.81 22.85 67.81 16.65 65.83 16.65 65.83 15.37 71.23 15.37"/><rect class="cls-1" x="72.35" y="15.37" width="1.44" height="7.48"/><path class="cls-1" d="M78.87,21.68c1.41,0,2.46-1.15,2.46-2.56s-1.05-2.56-2.46-2.56-2.46,1.15-2.46,2.56,1.05,2.56,2.46,2.56m0-6.41c2.31,0,3.9,1.72,3.9,3.85s-1.59,3.85-3.9,3.85-3.9-1.72-3.9-3.85,1.59-3.85,3.9-3.85"/><polygon class="cls-1" points="83.94 15.37 84.96 15.37 89.13 20.25 89.13 15.37 90.57 15.37 90.57 22.85 89.55 22.85 85.39 17.98 85.39 22.85 83.94 22.85 83.94 15.37"/><path class="cls-1" d="M92.47,20.85c.43,.47,1.08,.82,1.76,.82,.64,0,1.09-.4,1.09-.94,0-.96-1.39-1.08-2.39-1.67-.59-.34-1.06-.86-1.06-1.7,0-1.34,1.23-2.1,2.47-2.1,.76,0,1.46,.18,2.17,.71l-.75,1.07c-.3-.28-.8-.49-1.29-.49-.54,0-1.15,.23-1.15,.81,0,1.21,3.45,.83,3.45,3.35,0,1.33-1.19,2.24-2.53,2.24-1,0-1.93-.42-2.7-1.12l.94-.98Z"/><path class="cls-1" d="M5.35,9.28c0,.2-.19,.19-.42,.19s-.42,0-.42-.19,.19-.36,.42-.36,.42,.16,.42,.36"/><path class="cls-1" d="M12.65,9.28c0,.2-.19,.19-.42,.19s-.42,0-.42-.19,.19-.36,.42-.36,.42,.16,.42,.36"/><path class="cls-1" d="M7.76,23.05c-.22,0-.41-.18-.41-.4l-.19-7.34c0-1.19-.79-2.25-1.93-2.57-.59-.17-1.01-.22-1.01-.22-1.04-.12-1.54-.99-1.61-1.13-.54-.93-.12-1.52,.19-1.71,.33-.22,.54-.62,.59-.75,.62-1.54,1.87-1.84,2.22-1.89,0-.06-.02-.16-.07-.32h0c-.03-.09-.05-.18-.05-.27,0-.4,.32-.72,.72-.72,.03,0,.05,0,.08,0h.02c1.01,.14,1.95,.58,2.7,1.27,.04,.02,.08,.05,.11,.08,1.01-.5,2.21-.4,2.93-.18,1.03,.28,1.43,1.22,1.53,1.51,.06,.16,.15,.25,.38,.39l1.39,.62c.32,.14,.52,.47,.52,.85,0,.24-.06,.42-.11,.58-.02,.06-.57,1.76-2.29,1.78h-.32c-1.65,0-2.23,1.44-2.23,2.67h0c0,.15-.19,7.36-.19,7.36l-.83-.02,.18-7.03c0-.11,0-.21,.02-.3h0c0-2.09,1.22-3.5,3.05-3.5h.32c1.13-.03,1.51-1.21,1.52-1.22,.04-.11,.07-.21,.07-.32,0-.04,0-.08-.03-.09l-1.41-.63s-.02-.01-.03-.02c-.3-.17-.61-.39-.78-.84-.07-.2-.33-.82-.97-.99h-.02c-.07-.03-1.17-.35-2.15,.05,.19,.26,.35,.55,.51,.85,.28,.59,.45,1.3,.45,1.91,0,.69-.17,1.37-.5,1.97-.13,.27-.51,.71-1.18,.71-.47,0-.91-.25-1.15-.65-.02-.03-.53-.88-.53-2.03,0-.54,.13-1.15,.34-1.67,.2-.54,.48-.95,.8-1.26-.58-.51-1.29-.85-2.05-.99,.12,.41,.1,.73-.07,.97-.15,.21-.37,.29-.54,.3-.09,0-1.1,.14-1.59,1.38-.11,.27-.42,.82-.91,1.14h0c-.08,.08-.11,.27,.09,.6v.03s.33,.61,.99,.69c.02,0,.47,.06,1.13,.25,1.49,.43,2.53,1.81,2.53,3.36l.19,7.33c0,.23-.17,.42-.4,.43h-.01m1.21-14.86c-.24,.23-.44,.53-.58,.93v.02c-.19,.42-.29,.93-.29,1.36,0,.91,.41,1.59,.41,1.6,.09,.16,.26,.25,.44,.25,.3,0,.41-.2,.43-.24v-.02c.28-.48,.42-1.03,.42-1.59,0-.48-.14-1.07-.37-1.54-.14-.27-.29-.53-.46-.77"/><path class="cls-2" d="M10.15,23.12h-2.2c-1.42,0-2.65-1.06-2.86-2.46l-.13-.97v-.02s-.22-1.83-2.5-4.42c-1.58-1.68-2.46-3.89-2.46-6.2C0,4.06,4.06,0,9.05,0s9.05,4.06,9.05,9.05c0,2.31-.87,4.51-2.45,6.19-2.27,2.58-2.49,4.41-2.49,4.43v.02l-.14,.96c-.21,1.41-1.44,2.47-2.86,2.47m-4.24-3.56l.13,.96c.14,.93,.96,1.63,1.9,1.63h2.2c.95,0,1.76-.71,1.91-1.64l.14-.95c.02-.21,.31-2.21,2.73-4.96h.01c1.42-1.52,2.19-3.48,2.19-5.55C17.13,4.59,13.51,.97,9.05,.97S.97,4.59,.97,9.05c0,2.07,.78,4.04,2.2,5.54h.01c2.44,2.78,2.72,4.78,2.74,4.97"/><path class="cls-2" d="M11.75,24.78H6.35c-.27,0-.48-.22-.48-.48s.22-.48,.48-.48h5.41c.27,0,.48,.22,.48,.48s-.22,.48-.48,.48"/><path class="cls-2" d="M11.75,26.44H6.35c-.27,0-.48-.22-.48-.48s.22-.48,.48-.48h5.41c.27,0,.48,.22,.48,.48s-.22,.48-.48,.48"/></svg>